<svg xmlns="http://www.w3.org/2000/svg" version="1.1" xmlns:xlink="http://www.w3.org/1999/xlink" xmlns:svgjs="http://svgjs.dev/svgjs" width="2000" height="297" viewBox="0 0 2000 297"><g transform="matrix(1,0,0,1,-1.2121212121212466,0.22585828057989943)"><svg viewBox="0 0 396 59" data-background-color="#000000" preserveAspectRatio="xMidYMid meet" height="297" width="2000" xmlns="http://www.w3.org/2000/svg" xmlns:xlink="http://www.w3.org/1999/xlink"><g id="tight-bounds" transform="matrix(1,0,0,1,0.2400000000000091,-0.04486746987950596)"><svg viewBox="0 0 395.52 59.08973493975903" height="59.08973493975903" width="395.52"><g><svg viewBox="0 0 395.52 59.08973493975903" height="59.08973493975903" width="395.52"><g><svg viewBox="0 0 395.52 59.08973493975903" height="59.08973493975903" width="395.52"><g id="textblocktransform"><svg viewBox="0 0 395.52 59.08973493975903" height="59.08973493975903" width="395.52" id="textblock"><g><svg viewBox="0 0 395.52 59.08973493975903" height="59.08973493975903" width="395.52"><g transform="matrix(1,0,0,1,0,0)"><svg width="395.52" viewBox="5.03 -43.07 283.68 42.39" height="59.08973493975903" data-palette-color="#915eff"><path d="M7.96-0.68L7.96-0.68 29.54-0.68Q30.91-0.68 31.69-1.42 32.47-2.15 32.47-3.13 32.47-4.1 31.69-4.83 30.91-5.57 29.54-5.57L29.54-5.57 7.96-5.57Q6.59-5.57 5.81-4.83 5.03-4.1 5.03-3.13 5.03-2.15 5.81-1.42 6.59-0.68 7.96-0.68ZM7.96-6.93L7.96-6.93 17.04-6.93Q18.41-6.93 19.19-7.67 19.97-8.4 19.97-9.38 19.97-10.35 19.19-11.08 18.41-11.82 17.04-11.82L17.04-11.82 7.96-11.82Q6.59-11.82 5.81-11.08 5.03-10.35 5.03-9.38 5.03-8.4 5.81-7.67 6.59-6.93 7.96-6.93ZM26.71-6.93L26.71-6.93 35.79-6.93Q37.16-6.93 37.94-7.67 38.72-8.4 38.72-9.38 38.72-10.35 37.94-11.08 37.16-11.82 35.79-11.82L35.79-11.82 26.71-11.82Q25.34-11.82 24.56-11.08 23.78-10.35 23.78-9.38 23.78-8.4 24.56-7.67 25.34-6.93 26.71-6.93ZM7.96-13.18L7.96-13.18 17.04-13.18Q18.41-13.18 19.19-13.92 19.97-14.65 19.97-15.63 19.97-16.6 19.19-17.33 18.41-18.07 17.04-18.07L17.04-18.07 7.96-18.07Q6.59-18.07 5.81-17.33 5.03-16.6 5.03-15.63 5.03-14.65 5.81-13.92 6.59-13.18 7.96-13.18ZM32.96-13.18L32.96-13.18 42.04-13.18Q43.41-13.18 44.19-13.92 44.97-14.65 44.97-15.63 44.97-16.6 44.19-17.33 43.41-18.07 42.04-18.07L42.04-18.07 32.96-18.07Q31.59-18.07 30.81-17.33 30.03-16.6 30.03-15.63 30.03-14.65 30.81-13.92 31.59-13.18 32.96-13.18ZM7.96-19.43L7.96-19.43 17.04-19.43Q18.41-19.43 19.19-20.17 19.97-20.9 19.97-21.88 19.97-22.85 19.19-23.58 18.41-24.32 17.04-24.32L17.04-24.32 7.96-24.32Q6.59-24.32 5.81-23.58 5.03-22.85 5.03-21.88 5.03-20.9 5.81-20.17 6.59-19.43 7.96-19.43ZM32.96-19.43L32.96-19.43 42.04-19.43Q43.41-19.43 44.19-20.17 44.97-20.9 44.97-21.88 44.97-22.85 44.19-23.58 43.41-24.32 42.04-24.32L42.04-24.32 32.96-24.32Q31.59-24.32 30.81-23.58 30.03-22.85 30.03-21.88 30.03-20.9 30.81-20.17 31.59-19.43 32.96-19.43ZM7.96-25.68L7.96-25.68 17.04-25.68Q18.41-25.68 19.19-26.42 19.97-27.15 19.97-28.13 19.97-29.1 19.19-29.83 18.41-30.57 17.04-30.57L17.04-30.57 7.96-30.57Q6.59-30.57 5.81-29.83 5.03-29.1 5.03-28.13 5.03-27.15 5.81-26.42 6.59-25.68 7.96-25.68ZM32.96-25.68L32.96-25.68 42.04-25.68Q43.41-25.68 44.19-26.42 44.97-27.15 44.97-28.13 44.97-29.1 44.19-29.83 43.41-30.57 42.04-30.57L42.04-30.57 32.96-30.57Q31.59-30.57 30.81-29.83 30.03-29.1 30.03-28.13 30.03-27.15 30.81-26.42 31.59-25.68 32.96-25.68ZM7.96-31.93L7.96-31.93 17.04-31.93Q18.41-31.93 19.19-32.67 19.97-33.4 19.97-34.38 19.97-35.35 19.19-36.08 18.41-36.82 17.04-36.82L17.04-36.82 7.96-36.82Q6.59-36.82 5.81-36.08 5.03-35.35 5.03-34.38 5.03-33.4 5.81-32.67 6.59-31.93 7.96-31.93ZM26.71-31.93L26.71-31.93 35.79-31.93Q37.16-31.93 37.94-32.67 38.72-33.4 38.72-34.38 38.72-35.35 37.94-36.08 37.16-36.82 35.79-36.82L35.79-36.82 26.71-36.82Q25.34-36.82 24.56-36.08 23.78-35.35 23.78-34.38 23.78-33.4 24.56-32.67 25.34-31.93 26.71-31.93ZM7.96-38.18L7.96-38.18 29.54-38.18Q30.91-38.18 31.69-38.92 32.47-39.65 32.47-40.63 32.47-41.6 31.69-42.33 30.91-43.07 29.54-43.07L29.54-43.07 7.96-43.07Q6.59-43.07 5.81-42.33 5.03-41.6 5.03-40.63 5.03-39.65 5.81-38.92 6.59-38.18 7.96-38.18ZM57.96-0.68L57.96-0.68 92.04-0.68Q93.41-0.68 94.19-1.42 94.97-2.15 94.97-3.13 94.97-4.1 94.19-4.83 93.41-5.57 92.04-5.57L92.04-5.57 57.96-5.57Q56.59-5.57 55.81-4.83 55.03-4.1 55.03-3.13 55.03-2.15 55.81-1.42 56.59-0.68 57.96-0.68ZM57.96-6.93L57.96-6.93 67.04-6.93Q68.41-6.93 69.19-7.67 69.97-8.4 69.97-9.38 69.97-10.35 69.19-11.08 68.41-11.82 67.04-11.82L67.04-11.82 57.96-11.82Q56.59-11.82 55.81-11.08 55.03-10.35 55.03-9.38 55.03-8.4 55.81-7.67 56.59-6.93 57.96-6.93ZM57.96-13.18L57.96-13.18 67.04-13.18Q68.41-13.18 69.19-13.92 69.97-14.65 69.97-15.63 69.97-16.6 69.19-17.33 68.41-18.07 67.04-18.07L67.04-18.07 57.96-18.07Q56.59-18.07 55.81-17.33 55.03-16.6 55.03-15.63 55.03-14.65 55.81-13.92 56.59-13.18 57.96-13.18ZM57.96-19.43L57.96-19.43 79.54-19.43Q80.91-19.43 81.69-20.17 82.47-20.9 82.47-21.88 82.47-22.85 81.69-23.58 80.91-24.32 79.54-24.32L79.54-24.32 57.96-24.32Q56.59-24.32 55.81-23.58 55.03-22.85 55.03-21.88 55.03-20.9 55.81-20.17 56.59-19.43 57.96-19.43ZM57.96-25.68L57.96-25.68 67.04-25.68Q68.41-25.68 69.19-26.42 69.97-27.15 69.97-28.13 69.97-29.1 69.19-29.83 68.41-30.57 67.04-30.57L67.04-30.57 57.96-30.57Q56.59-30.57 55.81-29.83 55.03-29.1 55.03-28.13 55.03-27.15 55.81-26.42 56.59-25.68 57.96-25.68ZM57.96-31.93L57.96-31.93 67.04-31.93Q68.41-31.93 69.19-32.67 69.97-33.4 69.97-34.38 69.97-35.35 69.19-36.08 68.41-36.82 67.04-36.82L67.04-36.82 57.96-36.82Q56.59-36.82 55.81-36.08 55.03-35.35 55.03-34.38 55.03-33.4 55.81-32.67 56.59-31.93 57.96-31.93ZM57.96-38.18L57.96-38.18 92.04-38.18Q93.41-38.18 94.19-38.92 94.97-39.65 94.97-40.63 94.97-41.6 94.19-42.33 93.41-43.07 92.04-43.07L92.04-43.07 57.96-43.07Q56.59-43.07 55.81-42.33 55.03-41.6 55.03-40.63 55.03-39.65 55.81-38.92 56.59-38.18 57.96-38.18ZM120.45-0.68L120.45-0.68 129.54-0.68Q130.9-0.68 131.68-1.42 132.47-2.15 132.47-3.13 132.47-4.1 131.68-4.83 130.9-5.57 129.54-5.57L129.54-5.57 120.45-5.57Q119.09-5.57 118.31-4.83 117.52-4.1 117.52-3.13 117.52-2.15 118.31-1.42 119.09-0.68 120.45-0.68ZM114.2-6.93L114.2-6.93 135.79-6.93Q137.15-6.93 137.93-7.67 138.72-8.4 138.72-9.38 138.72-10.35 137.93-11.08 137.15-11.82 135.79-11.82L135.79-11.82 114.2-11.82Q112.84-11.82 112.06-11.08 111.27-10.35 111.27-9.38 111.27-8.4 112.06-7.67 112.84-6.93 114.2-6.93ZM107.95-13.18L107.95-13.18 117.04-13.18Q118.4-13.18 119.18-13.92 119.97-14.65 119.97-15.63 119.97-16.6 119.18-17.33 118.4-18.07 117.04-18.07L117.04-18.07 107.95-18.07Q106.59-18.07 105.81-17.33 105.02-16.6 105.02-15.63 105.02-14.65 105.81-13.92 106.59-13.18 107.95-13.18ZM132.95-13.18L132.95-13.18 142.04-13.18Q143.4-13.18 144.18-13.92 144.97-14.65 144.97-15.63 144.97-16.6 144.18-17.33 143.4-18.07 142.04-18.07L142.04-18.07 132.95-18.07Q131.59-18.07 130.81-17.33 130.02-16.6 130.02-15.63 130.02-14.65 130.81-13.92 131.59-13.18 132.95-13.18ZM107.95-19.43L107.95-19.43 117.04-19.43Q118.4-19.43 119.18-20.17 119.97-20.9 119.97-21.88 119.97-22.85 119.18-23.58 118.4-24.32 117.04-24.32L117.04-24.32 107.95-24.32Q106.59-24.32 105.81-23.58 105.02-22.85 105.02-21.88 105.02-20.9 105.81-20.17 106.59-19.43 107.95-19.43ZM132.95-19.43L132.95-19.43 142.04-19.43Q143.4-19.43 144.18-20.17 144.97-20.9 144.97-21.88 144.97-22.85 144.18-23.58 143.4-24.32 142.04-24.32L142.04-24.32 132.95-24.32Q131.59-24.32 130.81-23.58 130.02-22.85 130.02-21.88 130.02-20.9 130.81-20.17 131.59-19.43 132.95-19.43ZM107.95-25.68L107.95-25.68 117.04-25.68Q118.4-25.68 119.18-26.42 119.97-27.15 119.97-28.13 119.97-29.1 119.18-29.83 118.4-30.57 117.04-30.57L117.04-30.57 107.95-30.57Q106.59-30.57 105.81-29.83 105.02-29.1 105.02-28.13 105.02-27.15 105.81-26.42 106.59-25.68 107.95-25.68ZM132.95-25.68L132.95-25.68 142.04-25.68Q143.4-25.68 144.18-26.42 144.97-27.15 144.97-28.13 144.97-29.1 144.18-29.83 143.4-30.57 142.04-30.57L142.04-30.57 132.95-30.57Q131.59-30.57 130.81-29.83 130.02-29.1 130.02-28.13 130.02-27.15 130.81-26.42 131.59-25.68 132.95-25.68ZM107.95-31.93L107.95-31.93 117.04-31.93Q118.4-31.93 119.18-32.67 119.97-33.4 119.97-34.38 119.97-35.35 119.18-36.08 118.4-36.82 117.04-36.82L117.04-36.82 107.95-36.82Q106.59-36.82 105.81-36.08 105.02-35.35 105.02-34.38 105.02-33.4 105.81-32.67 106.59-31.93 107.95-31.93ZM132.95-31.93L132.95-31.93 142.04-31.93Q143.4-31.93 144.18-32.67 144.97-33.4 144.97-34.38 144.97-35.35 144.18-36.08 143.4-36.82 142.04-36.82L142.04-36.82 132.95-36.82Q131.59-36.82 130.81-36.08 130.02-35.35 130.02-34.38 130.02-33.4 130.81-32.67 131.59-31.93 132.95-31.93ZM107.95-38.18L107.95-38.18 117.04-38.18Q118.4-38.18 119.18-38.92 119.97-39.65 119.97-40.63 119.97-41.6 119.18-42.33 118.4-43.07 117.04-43.07L117.04-43.07 107.95-43.07Q106.59-43.07 105.81-42.33 105.02-41.6 105.02-40.63 105.02-39.65 105.81-38.92 106.59-38.18 107.95-38.18ZM132.95-38.18L132.95-38.18 142.04-38.18Q143.4-38.18 144.18-38.92 144.97-39.65 144.97-40.63 144.97-41.6 144.18-42.33 143.4-43.07 142.04-43.07L142.04-43.07 132.95-43.07Q131.59-43.07 130.81-42.33 130.02-41.6 130.02-40.63 130.02-39.65 130.81-38.92 131.59-38.18 132.95-38.18ZM170.45-0.68L170.45-0.68 179.53-0.68Q180.9-0.68 181.68-1.42 182.46-2.15 182.46-3.13 182.46-4.1 181.68-4.83 180.9-5.57 179.53-5.57L179.53-5.57 170.45-5.57Q169.08-5.57 168.3-4.83 167.52-4.1 167.52-3.13 167.52-2.15 168.3-1.42 169.08-0.68 170.45-0.68ZM170.45-6.93L170.45-6.93 179.53-6.93Q180.9-6.93 181.68-7.67 182.46-8.4 182.46-9.38 182.46-10.35 181.68-11.08 180.9-11.82 179.53-11.82L179.53-11.82 170.45-11.82Q169.08-11.82 168.3-11.08 167.52-10.35 167.52-9.38 167.52-8.4 168.3-7.67 169.08-6.93 170.45-6.93ZM207.95-0.68L207.95-0.68 217.03-0.68Q218.4-0.68 219.18-1.42 219.96-2.15 219.96-3.13 219.96-4.1 219.18-4.83 218.4-5.57 217.03-5.57L217.03-5.57 207.95-5.57Q206.58-5.57 205.8-4.83 205.02-4.1 205.02-3.13 205.02-2.15 205.8-1.42 206.58-0.68 207.95-0.68ZM232.95-0.68L232.95-0.68 242.03-0.68Q243.4-0.68 244.18-1.42 244.96-2.15 244.96-3.13 244.96-4.1 244.18-4.83 243.4-5.57 242.03-5.57L242.03-5.57 232.95-5.57Q231.58-5.57 230.8-4.83 230.02-4.1 230.02-3.13 230.02-2.15 230.8-1.42 231.58-0.68 232.95-0.68ZM207.95-6.93L207.95-6.93 217.03-6.93Q218.4-6.93 219.18-7.67 219.96-8.4 219.96-9.38 219.96-10.35 219.18-11.08 218.4-11.82 217.03-11.82L217.03-11.82 207.95-11.82Q206.58-11.82 205.8-11.08 205.02-10.35 205.02-9.38 205.02-8.4 205.8-7.67 206.58-6.93 207.95-6.93ZM232.95-6.93L232.95-6.93 242.03-6.93Q243.4-6.93 244.18-7.67 244.96-8.4 244.96-9.38 244.96-10.35 244.18-11.08 243.4-11.82 242.03-11.82L242.03-11.82 232.95-11.82Q231.58-11.82 230.8-11.08 230.02-10.35 230.02-9.38 230.02-8.4 230.8-7.67 231.58-6.93 232.95-6.93ZM207.95-13.18L207.95-13.18 217.03-13.18Q218.4-13.18 219.18-13.92 219.96-14.65 219.96-15.63 219.96-16.6 219.18-17.33 218.4-18.07 217.03-18.07L217.03-18.07 207.95-18.07Q206.58-18.07 205.8-17.33 205.02-16.6 205.02-15.63 205.02-14.65 205.8-13.92 206.58-13.18 207.95-13.18ZM232.95-13.18L232.95-13.18 242.03-13.18Q243.4-13.18 244.18-13.92 244.96-14.65 244.96-15.63 244.96-16.6 244.18-17.33 243.4-18.07 242.03-18.07L242.03-18.07 232.95-18.07Q231.58-18.07 230.8-17.33 230.02-16.6 230.02-15.63 230.02-14.65 230.8-13.92 231.58-13.18 232.95-13.18ZM207.95-19.43L207.95-19.43 242.03-19.43Q243.4-19.43 244.18-20.17 244.96-20.9 244.96-21.88 244.96-22.85 244.18-23.58 243.4-24.32 242.03-24.32L242.03-24.32 207.95-24.32Q206.58-24.32 205.8-23.58 205.02-22.85 205.02-21.88 205.02-20.9 205.8-20.17 206.58-19.43 207.95-19.43ZM207.95-25.68L207.95-25.68 217.03-25.68Q218.4-25.68 219.18-26.42 219.96-27.15 219.96-28.13 219.96-29.1 219.18-29.83 218.4-30.57 217.03-30.57L217.03-30.57 207.95-30.57Q206.58-30.57 205.8-29.83 205.02-29.1 205.02-28.13 205.02-27.15 205.8-26.42 206.58-25.68 207.95-25.68ZM232.95-25.68L232.95-25.68 242.03-25.68Q243.4-25.68 244.18-26.42 244.96-27.15 244.96-28.13 244.96-29.1 244.18-29.83 243.4-30.57 242.03-30.57L242.03-30.57 232.95-30.57Q231.58-30.57 230.8-29.83 230.02-29.1 230.02-28.13 230.02-27.15 230.8-26.42 231.58-25.68 232.95-25.68ZM214.2-31.93L214.2-31.93 235.78-31.93Q237.15-31.93 237.93-32.67 238.71-33.4 238.71-34.38 238.71-35.35 237.93-36.08 237.15-36.82 235.78-36.82L235.78-36.82 214.2-36.82Q212.83-36.82 212.05-36.08 211.27-35.35 211.27-34.38 211.27-33.4 212.05-32.67 212.83-31.93 214.2-31.93ZM220.45-38.18L220.45-38.18 229.53-38.18Q230.9-38.18 231.68-38.92 232.46-39.65 232.46-40.63 232.46-41.6 231.68-42.33 230.9-43.07 229.53-43.07L229.53-43.07 220.45-43.07Q219.08-43.07 218.3-42.33 217.52-41.6 217.52-40.63 217.52-39.65 218.3-38.92 219.08-38.18 220.45-38.18ZM264.2-0.68L264.2-0.68 285.78-0.68Q287.15-0.68 287.93-1.42 288.71-2.15 288.71-3.13 288.71-4.1 287.93-4.83 287.15-5.57 285.78-5.57L285.78-5.57 264.2-5.57Q262.83-5.57 262.05-4.83 261.27-4.1 261.27-3.13 261.27-2.15 262.05-1.42 262.83-0.68 264.2-0.68ZM270.45-6.93L270.45-6.93 279.53-6.93Q280.9-6.93 281.68-7.67 282.46-8.4 282.46-9.38 282.46-10.35 281.68-11.08 280.9-11.82 279.53-11.82L279.53-11.82 270.45-11.82Q269.08-11.82 268.3-11.08 267.52-10.35 267.52-9.38 267.52-8.4 268.3-7.67 269.08-6.93 270.45-6.93ZM270.45-13.18L270.45-13.18 279.53-13.18Q280.9-13.18 281.68-13.92 282.46-14.65 282.46-15.63 282.46-16.6 281.68-17.33 280.9-18.07 279.53-18.07L279.53-18.07 270.45-18.07Q269.08-18.07 268.3-17.33 267.52-16.6 267.52-15.63 267.52-14.65 268.3-13.92 269.08-13.18 270.45-13.18ZM270.45-19.43L270.45-19.43 279.53-19.43Q280.9-19.43 281.68-20.17 282.46-20.9 282.46-21.88 282.46-22.85 281.68-23.58 280.9-24.32 279.53-24.32L279.53-24.32 270.45-24.32Q269.08-24.32 268.3-23.58 267.52-22.85 267.52-21.88 267.52-20.9 268.3-20.17 269.08-19.43 270.45-19.43ZM270.45-25.68L270.45-25.68 279.53-25.68Q280.9-25.68 281.68-26.42 282.46-27.15 282.46-28.13 282.46-29.1 281.68-29.83 280.9-30.57 279.53-30.57L279.53-30.57 270.45-30.57Q269.08-30.57 268.3-29.83 267.52-29.1 267.52-28.13 267.52-27.15 268.3-26.42 269.08-25.68 270.45-25.68ZM270.45-31.93L270.45-31.93 279.53-31.93Q280.9-31.93 281.68-32.67 282.46-33.4 282.46-34.38 282.46-35.35 281.68-36.08 280.9-36.82 279.53-36.82L279.53-36.82 270.45-36.82Q269.08-36.82 268.3-36.08 267.52-35.35 267.52-34.38 267.52-33.4 268.3-32.67 269.08-31.93 270.45-31.93ZM264.2-38.18L264.2-38.18 285.78-38.18Q287.15-38.18 287.93-38.92 288.71-39.65 288.71-40.63 288.71-41.6 287.93-42.33 287.15-43.07 285.78-43.07L285.78-43.07 264.2-43.07Q262.83-43.07 262.05-42.33 261.27-41.6 261.27-40.63 261.27-39.65 262.05-38.92 262.83-38.18 264.2-38.18Z" opacity="1" transform="matrix(1,0,0,1,0,0)" fill="#915eff" class="wordmark-text-0" data-fill-palette-color="primary" id="text-0"></path></svg></g></svg></g></svg></g></svg></g></svg></g><defs></defs></svg><rect width="395.52" height="59.08973493975903" fill="none" stroke="none" visibility="hidden"></rect></g></svg></g></svg>